<svg width="64" height="64" viewBox="0 0 64 64" fill="none" xmlns="http://www.w3.org/2000/svg">
  <rect width="64" height="64" rx="12" fill="#34A853"/>
  <g transform="translate(12, 12) scale(1.67)">
    <path d="M11 21.73a2 2 0 0 0 2 0l7-4A2 2 0 0 0 21 16V8a2 2 0 0 0-1-1.73l-7-4a2 2 0 0 0-2 0l-7 4A2 2 0 0 0 3 8v8a2 2 0 0 0 1 1.73z" stroke="white" stroke-width="2" stroke-linecap="round" stroke-linejoin="round" fill="none"/>
    <path d="M12 22V12" stroke="white" stroke-width="2" stroke-linecap="round" stroke-linejoin="round" fill="none"/>
    <polyline points="3.29 7 12 12 20.71 7" stroke="white" stroke-width="2" stroke-linecap="round" stroke-linejoin="round" fill="none"/>
    <path d="m7.5 4.27 9 5.15" stroke="white" stroke-width="2" stroke-linecap="round" stroke-linejoin="round" fill="none"/>
  </g>
</svg>